:SAMPLES-PER-SECOND 30
:FULLY-SPECIFIED
:DEGREES
655
root  -41.0035 39.1147 2.61407 -144.765 -79.8169 138.289
RightUpLeg  -7.10279 1.91428 -11.0394
RightLeg  62.5865 4.06356 7.95942
RightFoot  2.64929 -1.76513 14.4564
RightToes  -8.3237e-009 0 -3.6325e-017
Spine  4.07821 0.130203 -8.04159
Spine1  8.04283 -0.218734 -2.86766
HEad  -18.7511 6.96877 -5.53041
LeftShoulder1  -0.732835 5.36306 -33.2534
LeftArm  9.97211 2.47024 -40.7207
LeftForeArm  28.2725 -14.7407 -8.28736
LeftHand  -0.104014 8.17305 -2.31731
RightShoulder  -0.962005 -6.09906 30.4971
RightArm  41.1043 -11.7173 44.8554
RightForeArm  15.1101 15.6095 8.40398
RightHand  0.118863 3.44999 1.32492
LeftUpLeg  -9.78319 4.63629 -10.5527
LeftLeg  18.9325 12.6626 2.64212
LeftFoot  -3.99965 -0.515291 8.39644
LeftToes  -1.18267e-011 3.61711e-011 9.57411e-011
656
root  -41.8775 39.1917 2.57715 -145.506 -79.9687 138.991
RightUpLeg  -11.8153 2.57167 -11.2513
RightLeg  64.734 3.69748 7.93887
RightFoot  2.85362 -1.51521 12.2842
RightToes  -8.3237e-009 0 -3.6325e-017
Spine  4.43537 -0.148096 -8.7473
Spine1  7.94119 -0.784383 -2.08864
HEad  -19.4991 7.79638 -5.56675
LeftShoulder1  -0.750469 5.40886 -33.2141
LeftArm  12.9517 1.50868 -41.3563
LeftForeArm  23.9838 -17.9143 -6.39411
LeftHand  -0.124113 8.79629 -2.43762
RightShoulder  -0.919245 -6.00249 30.1838
RightArm  41.5889 -14.547 43.7237
RightForeArm  11.5 17.4861 7.07889
RightHand  0.107542 4.12316 1.03196
LeftUpLeg  -8.29852 4.45828 -10.388
LeftLeg  19.1282 12.7832 2.70118
LeftFoot  -5.47585 -0.383539 8.1129
LeftToes  -1.18267e-011 3.61711e-011 9.57411e-011
657
root  -42.7448 39.2774 2.54507 -145.144 -80.1878 138.595
RightUpLeg  -15.9492 3.30221 -11.4332
RightLeg  64.0141 3.29558 6.80686
RightFoot  2.31413 -1.34194 11.2943
RightToes  -8.3237e-009 0 -3.6325e-017
Spine  5.09276 -0.370116 -9.42655
Spine1  7.26587 -1.2735 -1.08618
HEad  -19.7729 8.55393 -5.2783
LeftShoulder1  -0.872324 5.68716 -33.7816
LeftArm  15.922 0.790149 -41.1033
LeftForeArm  19.4736 -21.9053 -4.4583
LeftHand  -0.0690767 7.61336 -1.27114
RightShoulder  -0.815916 -5.77792 29.2681
RightArm  37.6827 -16.9031 43.6948
RightForeArm  11.7287 17.3408 6.82545
RightHand  0.148782 4.48522 1.4714
LeftUpLeg  -6.53558 4.20165 -10.3608
LeftLeg  18.7048 12.8006 2.58469
LeftFoot  -6.74365 -0.272569 7.79744
LeftToes  -1.18267e-011 3.61711e-011 9.57411e-011
658
root  -43.6095 39.3496 2.48979 -144.637 -80.8942 137.947
RightUpLeg  -18.9486 3.82681 -11.2268
RightLeg  60.4279 3.19289 5.59843
RightFoot  1.08217 -1.12106 10.3464
RightToes  -8.3237e-009 0 -3.6325e-017
Spine  5.40454 -0.637427 -9.33672
Spine1  7.23439 -1.57743 -0.742635
HEad  -19.8484 8.28673 -4.834
LeftShoulder1  -0.890951 5.72785 -33.8801
LeftArm  13.9598 0.261569 -41.0777
LeftForeArm  19.5342 -25.5738 -4.35407
LeftHand  -0.0319997 6.5409 0.213
RightShoulder  -0.814899 -5.77964 29.1926
RightArm  33.0294 -17.9454 43.7078
RightForeArm  13.2041 16.2784 7.02867
RightHand  0.0304678 4.60273 0.0546338
LeftUpLeg  -4.72702 4.31214 -10.0566
LeftLeg  18.4591 12.1547 2.45889
LeftFoot  -7.99288 -0.180815 7.82604
LeftToes  -1.18267e-011 3.61711e-011 9.57411e-011
659
root  -44.4369 39.4086 2.44415 -144.237 -82.1499 137.363
RightUpLeg  -21.2136 3.97601 -10.6659
RightLeg  54.8005 3.36015 4.733
RightFoot  0.295888 -1.06483 10.4593
RightToes  -8.3237e-009 0 -3.6325e-017
Spine  6.52915 -0.972942 -8.62308
Spine1  6.21071 -1.91175 -0.542508
HEad  -19.6786 8.08801 -4.65339
LeftShoulder1  -0.887073 5.72826 -33.698
LeftArm  11.4481 0.155698 -41.2024
LeftForeArm  21.0059 -28.998 -5.13425
LeftHand  -0.0209676 6.36518 1.51375
RightShoulder  -0.851412 -5.8664 29.3906
RightArm  28.4355 -18.3621 43.6629
RightForeArm  15.6843 14.7287 7.34675
RightHand  -0.0099001 4.227 -0.379434
LeftUpLeg  -3.08477 4.7404 -9.34166
LeftLeg  18.5508 10.8778 2.36839
LeftFoot  -9.27799 -0.0881583 8.00184
LeftToes  -1.18267e-011 3.61711e-011 9.57411e-011
660
root  -45.3452 39.4354 2.37503 -137.383 -83.2459 130.832
RightUpLeg  -23.1115 3.76319 -10.8613
RightLeg  47.852 3.59133 3.91306
RightFoot  -1.09522 -1.03052 11.3677
RightToes  -8.3237e-009 0 -3.6325e-017
Spine  6.04079 -1.30006 -8.74029
Spine1  6.38973 -2.19804 0.131993
HEad  -19.5584 7.86276 -4.65339
LeftShoulder1  -0.856875 5.67478 -33.3009
LeftArm  10.388 0.0776493 -41.4224
LeftForeArm  21.6871 -32.307 -5.88637
LeftHand  -0.0197274 5.7802 2.46905
RightShoulder  -1.0025 -6.20745 30.5311
RightArm  25.1768 -17.6181 42.7334
RightForeArm  18.4361 13.206 7.55355
RightHand  0.0939238 3.9262 0.897667
LeftUpLeg  -1.77453 4.80145 -9.2792
LeftLeg  18.4259 9.48974 2.18252
LeftFoot  -10.557 0.00711978 8.17881
LeftToes  -1.18267e-011 3.61711e-011 9.57411e-011
661
root  -46.1992 39.4174 2.30588 -129.14 -84.0943 122.962
RightUpLeg  -24.8036 3.78271 -11.1232
RightLeg  40.5479 4.29685 3.65484
RightFoot  -2.28126 -0.885091 10.9321
RightToes  -8.3237e-009 0 -3.6325e-017
Spine  5.59927 -1.33743 -8.8334
Spine1  6.78568 -2.31552 1.22633
HEad  -19.7218 7.05454 -4.84168
LeftShoulder1  -0.859606 5.65001 -33.8713
LeftArm  9.984 -0.554437 -41.4476
LeftForeArm  22.3423 -34.8055 -6.48909
LeftHand  -0.0251464 5.50728 2.42362
RightShoulder  -0.947434 -6.08324 30.1544
RightArm  22.2162 -16.6642 43.2089
RightForeArm  19.4038 11.6786 7.77729
RightHand  0.0792631 4.0455 0.701755
LeftUpLeg  -0.792739 4.6117 -9.25207
LeftLeg  18.6116 8.45115 2.28603
LeftFoot  -11.9608 0.115866 8.05733
LeftToes  -1.18267e-011 3.61711e-011 9.57411e-011
662
root  -47.0656 39.4016 2.25477 -114.573 -84.9049 108.822
RightUpLeg  -26.1319 3.89031 -11.5855
RightLeg  33.3268 4.99628 3.30385
RightFoot  -2.87325 -0.748918 9.83659
RightToes  -8.3237e-009 0 -3.6325e-017
Spine  5.28414 -1.38859 -7.98596
Spine1  7.07061 -2.20836 1.41079
HEad  -19.9023 5.76608 -4.80732
LeftShoulder1  -0.876143 5.67774 -34.1173
LeftArm  10.4015 -1.03707 -41.6847
LeftForeArm  23.0706 -36.7373 -6.96752
LeftHand  -0.0348866 4.96431 2.9668
RightShoulder  -0.957242 -6.13038 29.8613
RightArm  20.8563 -16.0331 43.6765
RightForeArm  20.5817 11.3577 7.61547
RightHand  0.145888 3.84994 1.58771
LeftUpLeg  0.236983 3.91301 -9.42423
LeftLeg  18.606 7.5024 2.56004
LeftFoot  -13.1667 0.206282 7.97647
LeftToes  -1.18267e-011 3.61711e-011 9.57411e-011
663
root  -47.952 39.3838 2.18829 -95.8481 -85.4372 90.6135
RightUpLeg  -27.1918 3.96313 -11.8533
RightLeg  26.4469 5.17883 2.5807
RightFoot  -3.50432 -0.719779 10.1367
RightToes  -8.3237e-009 0 -3.6325e-017
Spine  5.50389 -1.45747 -6.51268
Spine1  6.43045 -1.94473 0.738641
HEad  -19.8425 5.02163 -4.64923
LeftShoulder1  -0.795666 5.52311 -33.224
LeftArm  10.0892 -0.311954 -42.897
LeftForeArm  24.7528 -37.7751 -7.15584
LeftHand  -0.0377355 4.85131 3.31721
RightShoulder  -1.04725 -6.31974 30.6463
RightArm  22.3594 -15.1555 43.0499
RightForeArm  20.1586 12.0191 7.58689
RightHand  0.18735 3.15734 2.2915
LeftUpLeg  1.24921 3.13447 -9.28753
LeftLeg  18.5587 6.64834 2.68485
LeftFoot  -14.4044 0.295778 7.78429
LeftToes  -1.18267e-011 3.61711e-011 9.57411e-011
664
root  -48.8854 39.2913 2.10238 -71.0317 -85.2926 66.1585
RightUpLeg  -27.8696 4.15036 -12.3857
RightLeg  20.6491 5.39376 2.06085
RightFoot  -4.33227 -0.671312 10.4529
RightToes  -8.3237e-009 0 -3.6325e-017
Spine  6.01962 -1.51823 -4.96304
Spine1  5.60884 -1.72205 0.0228731
HEad  -20.2417 4.38938 -4.80036
LeftShoulder1  -0.713799 5.33871 -32.7458
LeftArm  11.4138 0.223289 -43.5516
LeftForeArm  24.4413 -37.8199 -7.18801
LeftHand  -0.0349634 4.88025 2.42405
RightShoulder  -0.986701 -6.17282 30.3897
RightArm  24.2073 -14.6854 43.1211
RightForeArm  17.7841 13.1077 7.48442
RightHand  0.0655806 3.08663 0.672081
LeftUpLeg  2.14563 2.40547 -8.89935
LeftLeg  19.2532 5.37283 2.53653
LeftFoot  -16.0572 0.415975 7.75964
LeftToes  -1.18267e-011 3.61711e-011 9.57411e-011
665
root  -49.8597 39.1578 1.976 -47.0057 -83.9003 42.3725
RightUpLeg  -28.0997 5.14007 -13.5398
RightLeg  15.8756 6.05866 1.63355
RightFoot  -5.26152 -0.584474 10.2761
RightToes  -8.3237e-009 0 -3.6325e-017
Spine  6.07831 -1.57862 -3.87739
Spine1  5.88729 -1.69683 -0.0396927
HEad  -21.1521 3.25919 -5.34955
LeftShoulder1  -0.729624 5.3416 -33.538
LeftArm  12.7958 -0.0553171 -43.4647
LeftForeArm  24.7624 -37.3981 -7.05067
LeftHand  -0.0165056 6.12526 1.98157
RightShoulder  -0.925471 -6.05946 29.635
RightArm  25.5193 -13.8905 43.4711
RightForeArm  15.375 14.428 7.08184
RightHand  0.0485079 4.37846 0.290957
LeftUpLeg  3.18193 0.523602 -8.66826
LeftLeg  20.1043 4.62703 2.52759
LeftFoot  -17.732 0.518166 7.35314
LeftToes  -1.18267e-011 3.61711e-011 9.57411e-011
666
root  -50.9091 39.0034 1.79294 -32.3699 -81.1447 27.8135
RightUpLeg  -27.9229 6.17569 -14.9831
RightLeg  12.7602 9.06196 0.979909
RightFoot  -6.50914 -0.452662 9.68131
RightToes  -8.3237e-009 0 -3.6325e-017
Spine  6.46067 -1.77632 -3.82393
Spine1  5.96207 -2.02024 0.494609
HEad  -21.3938 2.42344 -5.25214
LeftShoulder1  -0.673179 5.19512 -33.6354
LeftArm  13.8462 0.294745 -44.2231
LeftForeArm  24.2657 -35.0253 -6.43739
LeftHand  -0.0309006 5.12822 1.16971
RightShoulder  -0.997867 -6.24206 29.8867
RightArm  27.7652 -12.6422 42.7796
RightForeArm  12.8847 15.9495 6.61348
RightHand  0.0243783 4.38361 0.00571084
LeftUpLeg  4.55067 -2.01118 -8.61493
LeftLeg  20.8148 4.09608 2.36101
LeftFoot  -19.3004 0.611272 7.10735
LeftToes  -1.18267e-011 3.61711e-011 9.57411e-011
